<svg xmlns="http://www.w3.org/2000/svg" viewBox="0 0 512 512">
  <defs>
    <linearGradient id="bg" x1="0" y1="0" x2="1" y2="1">
      <stop offset="0" stop-color="#2f6b3f"/>
      <stop offset="1" stop-color="#1f4a2a"/>
    </linearGradient>
    <radialGradient id="glow" cx="0.5" cy="0.35" r="0.7">
      <stop offset="0" stop-color="#ffffff" stop-opacity="0.18"/>
      <stop offset="1" stop-color="#ffffff" stop-opacity="0"/>
    </radialGradient>
  </defs>
  <rect width="512" height="512" rx="96" fill="url(#bg)"/>
  <rect width="512" height="512" rx="96" fill="url(#glow)"/>
  <!-- pan body -->
  <ellipse cx="256" cy="320" rx="150" ry="34" fill="#0f2a18" opacity="0.35"/>
  <path d="M120 280 Q120 370 256 370 Q392 370 392 280 Z" fill="#f4a43b"/>
  <path d="M120 280 Q120 370 256 370 Q392 370 392 280 Z" fill="none" stroke="#7b4419" stroke-width="8"/>
  <!-- pan rim -->
  <ellipse cx="256" cy="280" rx="136" ry="26" fill="#ffd27a" stroke="#7b4419" stroke-width="8"/>
  <!-- handle -->
  <rect x="392" y="268" width="90" height="22" rx="11" fill="#7b4419"/>
  <!-- food: sunny egg -->
  <ellipse cx="240" cy="276" rx="58" ry="22" fill="#ffffff"/>
  <circle cx="240" cy="274" r="16" fill="#ffd27a"/>
  <!-- steam -->
  <path d="M210 210 Q220 190 210 170 Q200 150 210 130" fill="none" stroke="#ffffff" stroke-width="10" stroke-linecap="round" opacity="0.8"/>
  <path d="M256 200 Q266 180 256 160 Q246 140 256 120" fill="none" stroke="#ffffff" stroke-width="10" stroke-linecap="round" opacity="0.65"/>
  <path d="M302 210 Q312 190 302 170 Q292 150 302 130" fill="none" stroke="#ffffff" stroke-width="10" stroke-linecap="round" opacity="0.8"/>
</svg>
